<svg xmlns="http://www.w3.org/2000/svg" width="227" height="61" viewBox="0 0 227 61"><defs><clipPath id="5svga"><path fill="#fff" d="M5 0h217a5 5 0 0 1 5 5v41a5 5 0 0 1-5 5h-93.457c-3.335 2.387-12.53 8.96-13.452 9.62-.725.516-2.451.507-3.176 0-.683-.479-10.037-7.156-13.464-9.62H5a5 5 0 0 1-5-5V5a5 5 0 0 1 5-5z"/></clipPath></defs><g><g><path fill="#fff" d="M5 0h217a5 5 0 0 1 5 5v41a5 5 0 0 1-5 5h-93.457c-3.335 2.387-12.53 8.96-13.452 9.62-.725.516-2.451.507-3.176 0-.683-.479-10.037-7.156-13.464-9.62H5a5 5 0 0 1-5-5V5a5 5 0 0 1 5-5z"/><path fill="none" stroke="#d4d4d5" stroke-miterlimit="20" stroke-width="4" d="M5 0h217a5 5 0 0 1 5 5v41a5 5 0 0 1-5 5h-93.457c-3.335 2.387-12.53 8.96-13.452 9.62-.725.516-2.451.507-3.176 0-.683-.479-10.037-7.156-13.464-9.62H5a5 5 0 0 1-5-5V5a5 5 0 0 1 5-5z" clip-path="url(&quot;#5svga&quot;)"/></g></g></svg>