<svg xmlns="http://www.w3.org/2000/svg" width="32" height="29" viewBox="0 0 32 29"><g><g><path fill="#adff63" d="M29.196 16.505L18.143 27.43a3.048 3.048 0 0 1-4.278 0L2.812 16.505a9.394 9.394 0 0 1 0-13.393c3.63-3.59 9.432-3.665 13.192-.288 3.76-3.377 9.562-3.302 13.192.288a9.394 9.394 0 0 1 0 13.393zM27.769 4.52c-2.843-2.811-7.416-2.91-10.41-.222l-1.355 1.218L14.648 4.3c-2.993-2.688-7.565-2.59-10.41.222a7.423 7.423 0 0 0 0 10.574L15.292 26.02c.392.39 1.033.39 1.425 0L27.77 15.095a7.422 7.422 0 0 0 0-10.574zM9.755 5.844a.5.5 0 0 1-.5.499 3.247 3.247 0 0 0-3.25 3.244v.001a.5.5 0 0 1-1 0 4.246 4.246 0 0 1 4.246-4.242l.004-.001a.5.5 0 0 1 .5.499z"/></g></g></svg>