<svg xmlns="http://www.w3.org/2000/svg" width="28" height="29" viewBox="0 0 28 29"><g><g><path fill="#6d6e71" d="M3.413.606a1.816 1.816 0 0 1 2.581 0l3.872 5.2c.592.88.713 1.882 0 2.6l-1.58 1.591c1.172 1.585 2.579 3.314 4.162 4.91 1.79 1.802 3.782 3.441 5.572 4.787l1.527-1.538c.713-.718 1.707-.596 2.581 0l5.164 3.9c.865.603.712 1.882 0 2.6l-2.582 2.6c-1.426 1.436-3.28.975-5.163 0 0 0-5.699-3.222-10.577-8.136C4.38 14.498.83 8.406.83 8.406c-.74-2.05-1.426-3.764 0-5.2zm2.502 9.18l2.074-2.09c.453-.456.376-1.093 0-1.654L5.525 2.733c-.454-.61-1.19-.457-1.643 0L2.239 4.388c-.644.61-.458 2.033-.117 2.718 1.524 2.925 4.91 7.43 7.744 10.4 3.268 3.57 10.972 8.45 10.972 8.45.595.315 2.245.339 2.699-.118l1.642-1.655c.34-.572.492-1.236 0-1.654l-3.285-2.482c-.557-.38-1.19-.457-1.643 0l-2.024 2.038c-.477-.338-8.081-5.371-12.312-12.3z"/></g></g></svg>