<svg xmlns="http://www.w3.org/2000/svg" width="25" height="34" viewBox="0 0 25 34"><g><g><path fill="#1faae2" d="M12.46 33.995c-2.074.01-12.477-15.917-12.477-21.247C-.017 5.708 5.569 0 12.46 0s12.478 5.708 12.478 12.748c0 5.259-10.436 21.258-12.478 21.247zm0-31.87c-5.742 0-10.397 4.756-10.397 10.623 0 4.442 8.669 18.069 10.397 18.06 1.702.009 10.398-13.678 10.398-18.06 0-5.867-4.655-10.623-10.398-10.623zm0 15.935c-2.871 0-5.199-2.378-5.199-5.312 0-2.933 2.328-5.311 5.2-5.311 2.87 0 5.198 2.378 5.198 5.311 0 2.934-2.327 5.312-5.199 5.312zm0-8.499c-1.722 0-3.12 1.427-3.12 3.187 0 1.76 1.398 3.187 3.12 3.187 1.723 0 3.12-1.427 3.12-3.187 0-1.76-1.397-3.187-3.12-3.187z"/></g></g></svg>